<svg id="Capa_1" data-name="Capa 1" xmlns="http://www.w3.org/2000/svg" viewBox="0 0 771.7 260.9"><defs><style>.cls-1{fill:#0f3c61;}.cls-2{fill:#e5e5e5;}</style></defs><path class="cls-1" d="M687.73,206.86c5-17.84,14-32.59,30-42.27A63,63,0,0,1,753,155.44c22.16.66,50.34,15.84,59.61,51.48,9.46,0,19.08,0,28.7,0,7.12,0,6.8,0,7.71,7,3.65,28.25,7.49,56.48,11.34,84.71q7.6,56,15.39,111.89c.65,4.65-1.22,5.79-5.49,5.78q-113-.17-226-.16c-5,0-10-.07-15,.09-4.09.13-5.73-1.31-5.12-5.65,7.39-52.45,14.62-104.92,22-157.36,2-14.35,4.48-28.63,5.82-43.06.3-3.13,2.22-3.25,4.52-3.25l25.49,0Zm122.26,57c-23.36-28.49-72.83-39.45-108-8.83-33.5,29.18-36.35,78.46-6.09,110.46,29.25,30.92,74.88,28.33,96.76,10.1-3.41-3.25-6.87-6.36-10.11-9.7-2.09-2.16-3.81-2.16-6.52-.82A54.87,54.87,0,0,1,751,370.85,58.59,58.59,0,0,1,697,333.79c-8.44-21.88-2.6-47.54,14.43-63.43a58.43,58.43,0,0,1,65.11-9.75,72.46,72.46,0,0,1,20.23,14.77Zm-9.92-57.06c-3.49-18.2-22.8-39.84-49.65-39.62-24.08.2-47.47,18.78-50,39.62Zm23.34,99.4H752.73v17.48h53a34.88,34.88,0,0,1-1.52,10c-.49,1.65-.85,3.09.6,4.58,3.57,3.65,7,7.44,10.94,11.7C823.42,335.41,824.66,321.28,823.41,306.17Z" transform="translate(-624.04 -155.4)"/><path class="cls-2" d="M810,263.83,796.8,275.38a72.46,72.46,0,0,0-20.23-14.77,58.43,58.43,0,0,0-65.11,9.75c-17,15.89-22.87,41.55-14.43,63.43A58.59,58.59,0,0,0,751,370.85,54.87,54.87,0,0,0,776.05,365c2.71-1.34,4.43-1.34,6.52.82,3.24,3.34,6.7,6.45,10.11,9.7-21.88,18.23-67.51,20.82-96.76-10.1-30.26-32-27.41-81.28,6.09-110.46C737.16,224.38,786.63,235.34,810,263.83Z" transform="translate(-624.04 -155.4)"/><path class="cls-2" d="M823.41,306.17c1.25,15.11,0,29.24-7.66,43.71-4-4.26-7.37-8.05-10.94-11.7-1.45-1.49-1.09-2.93-.6-4.58a34.88,34.88,0,0,0,1.52-10h-53V306.17Z" transform="translate(-624.04 -155.4)"/><path class="cls-1" d="M972,284.69a19.47,19.47,0,0,1-8.31,7.9q-5.64,3-14.25,3h-11.7v26.8h-14V252.58h25.7a31.15,31.15,0,0,1,13.8,2.8,19.55,19.55,0,0,1,8.56,7.71,22.59,22.59,0,0,1,.2,21.6Zm-14.56-3.05a9.76,9.76,0,0,0,2.8-7.45q0-10.2-11.4-10.2h-11.1v20.3h11.1Q954.67,284.29,957.46,281.64Z" transform="translate(-624.04 -155.4)"/><path class="cls-1" d="M1020.57,322.39l-15.4-27.2h-6.6v27.2h-14V252.58h26.2a30.59,30.59,0,0,1,13.8,2.85,19.89,19.89,0,0,1,8.55,7.71A21,21,0,0,1,1036,274a20.76,20.76,0,0,1-4,12.45q-4,5.55-11.9,7.65l16.7,28.3Zm-22-37.7h11.7q5.7,0,8.5-2.75a10.23,10.23,0,0,0,2.8-7.65c0-3.2-.93-5.69-2.8-7.45s-4.7-2.65-8.5-2.65h-11.7Z" transform="translate(-624.04 -155.4)"/><path class="cls-1" d="M1063.08,318.49a34.32,34.32,0,0,1-13-12.75,37.67,37.67,0,0,1,0-36.8,34.42,34.42,0,0,1,13-12.76,37.62,37.62,0,0,1,36.05,0,34,34,0,0,1,12.9,12.76,38,38,0,0,1,0,36.8,33.81,33.81,0,0,1-13,12.75,37.52,37.52,0,0,1-36,0Zm29.1-10.75a19.5,19.5,0,0,0,7.5-8.15,26.72,26.72,0,0,0,2.7-12.3,26.42,26.42,0,0,0-2.7-12.25,19.23,19.23,0,0,0-7.5-8.05,21.59,21.59,0,0,0-11.1-2.8,21.85,21.85,0,0,0-11.15,2.8,19.09,19.09,0,0,0-7.55,8.05,26.42,26.42,0,0,0-2.7,12.25,26.72,26.72,0,0,0,2.7,12.3,19.35,19.35,0,0,0,7.55,8.15,21.59,21.59,0,0,0,11.15,2.85A21.33,21.33,0,0,0,1092.18,307.74Z" transform="translate(-624.04 -155.4)"/><path class="cls-1" d="M1170.94,256.88a30.72,30.72,0,0,1,12.9,12.26,36.42,36.42,0,0,1,4.55,18.45,35.87,35.87,0,0,1-4.55,18.35,30.78,30.78,0,0,1-12.9,12.15,41.67,41.67,0,0,1-19.35,4.3h-24.4V252.58h24.4A41.79,41.79,0,0,1,1170.94,256.88Zm-2.85,47.61q6-6,6-16.9t-6-17q-6-6.15-17-6.15h-9.9v46.1h9.9Q1162.09,310.49,1168.09,304.49Z" transform="translate(-624.04 -155.4)"/><path class="cls-1" d="M1212.7,252.58v43.21q0,7.11,3.7,10.85t10.4,3.75q6.79,0,10.5-3.75t3.7-10.85V252.58h14.1v43.11q0,8.91-3.85,15.05A24.34,24.34,0,0,1,1241,320a32.64,32.64,0,0,1-14.35,3.1,31.77,31.77,0,0,1-14.15-3.1,23.48,23.48,0,0,1-10-9.25q-3.7-6.15-3.7-15.05V252.58Z" transform="translate(-624.04 -155.4)"/><path class="cls-1" d="M1269.86,268.94a33.21,33.21,0,0,1,12.7-12.71,36,36,0,0,1,18-4.55,35.49,35.49,0,0,1,20.5,6,31.46,31.46,0,0,1,12.31,16.61h-16.11a16.62,16.62,0,0,0-6.75-7.5,19.78,19.78,0,0,0-10-2.5,20.65,20.65,0,0,0-10.85,2.85,19.36,19.36,0,0,0-7.4,8.05,29.29,29.29,0,0,0,0,24.35,19.32,19.32,0,0,0,7.4,8.1,20.65,20.65,0,0,0,10.85,2.85,19.5,19.5,0,0,0,10-2.55,17,17,0,0,0,6.75-7.55h16.11A31.17,31.17,0,0,1,1321.16,317a38.28,38.28,0,0,1-38.6,1.4,33.26,33.26,0,0,1-12.7-12.65,38.83,38.83,0,0,1,0-36.85Z" transform="translate(-624.04 -155.4)"/><path class="cls-1" d="M1392.92,252.58v11.31h-18.6v58.5h-14v-58.5h-18.61V252.58Z" transform="translate(-624.04 -155.4)"/><path class="cls-1" d="M952.37,340.21v27.34H949.6V345.72l-9.75,21.83h-2l-9.75-21.75v21.75h-2.77V340.21h2.93l10.58,23.7,10.58-23.7Z" transform="translate(-624.04 -155.4)"/><path class="cls-1" d="M974.72,361h-12.6l-2.42,6.57h-2.93l10.1-27.34H970l10.06,27.34h-2.93Zm-.84-2.3-5.46-15-5.47,15Z" transform="translate(-624.04 -155.4)"/><path class="cls-1" d="M1005.38,367.55h-2.77l-15.33-23.29v23.29H984.5V339.86h2.78l15.33,23.25V339.86h2.77Z" transform="translate(-624.04 -155.4)"/><path class="cls-1" d="M1027.73,361h-12.6l-2.42,6.57h-2.93l10.1-27.34H1023l10.06,27.34h-2.93Zm-.84-2.3-5.46-15-5.47,15Z" transform="translate(-624.04 -155.4)"/><path class="cls-1" d="M1059.3,347.94a9.52,9.52,0,0,0-3.62-4.3,10.42,10.42,0,0,0-5.73-1.56,10.8,10.8,0,0,0-5.54,1.42,10.22,10.22,0,0,0-3.89,4.06,14,14,0,0,0,0,12.27,10.14,10.14,0,0,0,3.89,4.08,11.54,11.54,0,0,0,10.75.18,9.75,9.75,0,0,0,3.73-3.57,11.79,11.79,0,0,0,1.6-5.41h-11.65v-2.26h14.58v2a14,14,0,0,1-2,6.6,13.07,13.07,0,0,1-4.77,4.66,13.42,13.42,0,0,1-6.72,1.7,13.71,13.71,0,0,1-7-1.8,13,13,0,0,1-4.93-5,15.65,15.65,0,0,1,0-14.61,13,13,0,0,1,4.93-5,14.56,14.56,0,0,1,14.74.42,12.55,12.55,0,0,1,4.83,6.18Z" transform="translate(-624.04 -155.4)"/><path class="cls-1" d="M1071.27,342.12v10.34h10.49v2.29h-10.49v10.5H1083v2.3h-14.46V339.82H1083v2.3Z" transform="translate(-624.04 -155.4)"/><path class="cls-1" d="M1115.48,340.21v27.34h-2.77V345.72L1103,367.55h-2l-9.75-21.75v21.75h-2.77V340.21h2.93l10.58,23.7,10.58-23.7Z" transform="translate(-624.04 -155.4)"/><path class="cls-1" d="M1124.55,342.12v10.34h10.5v2.29h-10.5v10.5h11.69v2.3h-14.46V339.82h14.46v2.3Z" transform="translate(-624.04 -155.4)"/><path class="cls-1" d="M1162.59,367.55h-2.78l-15.33-23.29v23.29h-2.77V339.86h2.77l15.33,23.25V339.86h2.78Z" transform="translate(-624.04 -155.4)"/><path class="cls-1" d="M1185.09,339.86v2.3h-7.69v25.39h-2.77V342.16h-7.72v-2.3Z" transform="translate(-624.04 -155.4)"/><path class="cls-1" d="M1203.93,366.88a7.87,7.87,0,0,1-3.27-2.66,6.94,6.94,0,0,1-1.27-3.8h2.93a5.61,5.61,0,0,0,1.79,3.55,6.44,6.44,0,0,0,4.63,1.52,6.53,6.53,0,0,0,4.46-1.44,4.7,4.7,0,0,0,1.64-3.67,4.31,4.31,0,0,0-.91-2.87,5.6,5.6,0,0,0-2.26-1.63,35.92,35.92,0,0,0-3.72-1.16,34.35,34.35,0,0,1-4.4-1.47,7,7,0,0,1-2.77-2.22,6.53,6.53,0,0,1-1.15-4.08,6.77,6.77,0,0,1,1.11-3.82,7.42,7.42,0,0,1,3.13-2.64,10.82,10.82,0,0,1,4.63-.95,9.65,9.65,0,0,1,6.2,1.88,7.08,7.08,0,0,1,2.72,4.86h-3a5,5,0,0,0-1.87-3,7.34,7.34,0,0,0-8.43,0,4.38,4.38,0,0,0-1.67,3.62,4.22,4.22,0,0,0,.91,2.81,5.79,5.79,0,0,0,2.28,1.63,35.28,35.28,0,0,0,3.71,1.19,33.25,33.25,0,0,1,4.35,1.48,7.19,7.19,0,0,1,2.82,2.24,6.55,6.55,0,0,1,1.15,4,7.22,7.22,0,0,1-1,3.69,7.57,7.57,0,0,1-3.05,2.81,10.26,10.26,0,0,1-4.84,1.07A11.5,11.5,0,0,1,1203.93,366.88Z" transform="translate(-624.04 -155.4)"/><path class="cls-1" d="M1228.47,366a13,13,0,0,1-4.93-5,15.72,15.72,0,0,1,0-14.61,13,13,0,0,1,4.93-5,14.49,14.49,0,0,1,14,0,12.93,12.93,0,0,1,4.91,5,15.88,15.88,0,0,1,0,14.61,12.93,12.93,0,0,1-4.91,5,14.49,14.49,0,0,1-14,0Zm12.52-2a10.11,10.11,0,0,0,3.88-4.1,14.13,14.13,0,0,0,0-12.39,10.25,10.25,0,0,0-3.88-4.08,11.54,11.54,0,0,0-11.09,0,10.34,10.34,0,0,0-3.89,4.08,14.22,14.22,0,0,0,0,12.39,10.2,10.2,0,0,0,3.89,4.1,11.54,11.54,0,0,0,11.09,0Z" transform="translate(-624.04 -155.4)"/><path class="cls-1" d="M1269.2,339.86v2.3H1257V352.5h10.3v2.29H1257v12.76h-2.78V339.86Z" transform="translate(-624.04 -155.4)"/><path class="cls-1" d="M1290,339.86v2.3h-7.69v25.39h-2.77V342.16h-7.73v-2.3Z" transform="translate(-624.04 -155.4)"/><path class="cls-1" d="M1328,339.86l-7.84,27.69H1317l-7-23.61-7.13,23.61-3,0-7.68-27.73h3l6.34,24.28,7.09-24.28h3.09l6.89,24.28,6.38-24.28Z" transform="translate(-624.04 -155.4)"/><path class="cls-1" d="M1348.24,361h-12.6l-2.42,6.57h-2.93l10.1-27.34h3.13l10.07,27.34h-2.94Zm-.83-2.3-5.47-15-5.47,15Z" transform="translate(-624.04 -155.4)"/><path class="cls-1" d="M1372.76,367.55,1365.91,356h-5.11v11.57H1358V339.86h8.32q4.64,0,7,2.22a7.58,7.58,0,0,1,2.39,5.82,7.85,7.85,0,0,1-1.72,5.13,8.32,8.32,0,0,1-5.09,2.76l7.13,11.76Zm-12-13.83h5.58a6.8,6.8,0,0,0,4.9-1.58,5.64,5.64,0,0,0,1.64-4.24,5.5,5.5,0,0,0-1.59-4.22c-1-1-2.72-1.48-5-1.48h-5.54Z" transform="translate(-624.04 -155.4)"/><path class="cls-1" d="M1384.05,342.12v10.34h10.5v2.29h-10.5v10.5h11.69v2.3h-14.46V339.82h14.46v2.3Z" transform="translate(-624.04 -155.4)"/></svg>